999
"DXF R12 Output" (www.mydxf.blogspot.com)
 0 
SECTION
 2 
HEADER
 9 
$ACADVER
 1 
AC1009
 9 
$EXTMIN
 10 
 0 
 20 
 0 
 9 
$EXTMAX
 10 
 8.5 
 20 
 11 
 0 
ENDSEC
 0 
SECTION
 2 
ENTITIES
0
POLYLINE
8
Layer 1
62
7
70
1
10
0.000000
20
0.000000
66
1
0
VERTEX
8
Layer 1
10
132.469725
20
-36.262785
70
0
0
VERTEX
8
Layer 1
10
130.453349
20
-36.174910
70
0
0
VERTEX
8
Layer 1
10
128.551159
20
-35.911304
70
0
0
VERTEX
8
Layer 1
10
126.763155
20
-35.471990
70
0
0
VERTEX
8
Layer 1
10
125.089337
20
-34.856997
70
0
0
VERTEX
8
Layer 1
10
123.569341
20
-34.083852
70
0
0
VERTEX
8
Layer 1
10
122.172361
20
-33.170085
70
0
0
VERTEX
8
Layer 1
10
120.898370
20
-32.115723
70
0
0
VERTEX
8
Layer 1
10
119.747342
20
-30.920790
70
0
0
VERTEX
8
Layer 1
10
118.723727
20
-29.594064
70
0
0
VERTEX
8
Layer 1
10
117.831955
20
-28.144324
70
0
0
VERTEX
8
Layer 1
10
117.071977
20
-26.571594
70
0
0
VERTEX
8
Layer 1
10
116.443740
20
-24.875901
70
0
0
VERTEX
8
Layer 1
10
115.951675
20
-23.074773
70
0
0
VERTEX
8
Layer 1
10
115.600232
20
-21.185741
70
0
0
VERTEX
8
Layer 1
10
115.319109
20
-17.144066
70
0
0
VERTEX
8
Layer 1
10
115.402565
20
-14.956257
70
0
0
VERTEX
8
Layer 1
10
115.652950
20
-12.891488
70
0
0
VERTEX
8
Layer 1
10
116.070289
20
-10.949760
70
0
0
VERTEX
8
Layer 1
10
116.654608
20
-9.131073
70
0
0
VERTEX
8
Layer 1
10
117.388279
20
-7.408970
70
0
0
VERTEX
8
Layer 1
10
118.253692
20
-5.827437
70
0
0
VERTEX
8
Layer 1
10
119.250897
20
-4.386500
70
0
0
VERTEX
8
Layer 1
10
120.379947
20
-3.086184
70
0
0
VERTEX
8
Layer 1
10
121.627609
20
-1.930841
70
0
0
VERTEX
8
Layer 1
10
122.980655
20
-0.924819
70
0
0
VERTEX
8
Layer 1
10
124.439134
20
-0.068146
70
0
0
VERTEX
8
Layer 1
10
126.003099
20
0.639154
70
0
0
VERTEX
8
Layer 1
10
127.689993
20
1.223474
70
0
0
VERTEX
8
Layer 1
10
129.447212
20
1.640813
70
0
0
VERTEX
8
Layer 1
10
131.274753
20
1.891197
70
0
0
VERTEX
8
Layer 1
10
133.172619
20
1.974653
70
0
0
VERTEX
8
Layer 1
10
136.028087
20
1.816502
70
0
0
VERTEX
8
Layer 1
10
138.549724
20
1.342048
70
0
0
VERTEX
8
Layer 1
10
140.737503
20
0.551293
70
0
0
VERTEX
8
Layer 1
10
142.591399
20
-0.555766
70
0
0
VERTEX
8
Layer 1
10
144.098267
20
-1.908850
70
0
0
VERTEX
8
Layer 1
10
145.174570
20
-3.437666
70
0
0
VERTEX
8
Layer 1
10
145.820332
20
-5.142188
70
0
0
VERTEX
8
Layer 1
10
146.035580
20
-7.022391
70
0
0
VERTEX
8
Layer 1
10
145.952125
20
-8.186534
70
0
0
VERTEX
8
Layer 1
10
145.701740
20
-9.218935
70
0
0
VERTEX
8
Layer 1
10
145.284401
20
-10.119544
70
0
0
VERTEX
8
Layer 1
10
144.700082
20
-10.888309
70
0
0
VERTEX
8
Layer 1
10
143.975171
20
-11.472628
70
0
0
VERTEX
8
Layer 1
10
143.136074
20
-11.889967
70
0
0
VERTEX
8
Layer 1
10
142.182791
20
-12.140352
70
0
0
VERTEX
8
Layer 1
10
141.115322
20
-12.223807
70
0
0
VERTEX
8
Layer 1
10
140.025823
20
-12.144732
70
0
0
VERTEX
8
Layer 1
10
139.076895
20
-11.907505
70
0
0
VERTEX
8
Layer 1
10
138.268562
20
-11.512127
70
0
0
VERTEX
8
Layer 1
10
137.600851
20
-10.958598
70
0
0
VERTEX
8
Layer 1
10
137.078113
20
-10.251285
70
0
0
VERTEX
8
Layer 1
10
136.704696
20
-9.464948
70
0
0
VERTEX
8
Layer 1
10
136.480627
20
-8.599536
70
0
0
VERTEX
8
Layer 1
10
136.405932
20
-7.654996
70
0
0
VERTEX
8
Layer 1
10
136.616800
20
-6.143774
70
0
0
VERTEX
8
Layer 1
10
137.249404
20
-4.843420
70
0
0
VERTEX
8
Layer 1
10
138.215849
20
-3.806651
70
0
0
VERTEX
8
Layer 1
10
139.428376
20
-3.086184
70
0
0
VERTEX
8
Layer 1
10
139.428376
20
-2.734737
70
0
0
VERTEX
8
Layer 1
10
137.319694
20
-2.102133
70
0
0
VERTEX
8
Layer 1
10
135.896333
20
-1.838582
70
0
0
VERTEX
8
Layer 1
10
134.156670
20
-1.750686
70
0
0
VERTEX
8
Layer 1
10
131.942554
20
-1.961554
70
0
0
VERTEX
8
Layer 1
10
129.939306
20
-2.594158
70
0
0
VERTEX
8
Layer 1
10
128.182105
20
-3.613321
70
0
0
VERTEX
8
Layer 1
10
126.705993
20
-4.983998
70
0
0
VERTEX
8
Layer 1
10
125.511005
20
-6.618227
70
0
0
VERTEX
8
Layer 1
10
124.597311
20
-8.568758
70
0
0
VERTEX
8
Layer 1
10
124.070106
20
-10.800413
70
0
0
VERTEX
8
Layer 1
10
123.894417
20
-13.278148
70
0
0
VERTEX
8
Layer 1
10
123.894417
20
-19.393327
70
0
0
VERTEX
8
Layer 1
10
124.056948
20
-21.893007
70
0
0
VERTEX
8
Layer 1
10
124.544560
20
-24.120324
70
0
0
VERTEX
8
Layer 1
10
125.357277
20
-26.075252
70
0
0
VERTEX
8
Layer 1
10
126.495125
20
-27.757767
70
0
0
VERTEX
8
Layer 1
10
127.914118
20
-29.080125
70
0
0
VERTEX
8
Layer 1
10
129.570287
20
-30.024634
70
0
0
VERTEX
8
Layer 1
10
131.463682
20
-30.591321
70
0
0
VERTEX
8
Layer 1
10
133.594355
20
-30.780211
70
0
0
VERTEX
8
Layer 1
10
135.584424
20
-30.665978
70
0
0
VERTEX
8
Layer 1
10
137.337266
20
-30.323296
70
0
0
VERTEX
8
Layer 1
10
138.852882
20
-29.752190
70
0
0
VERTEX
8
Layer 1
10
140.131270
20
-28.952686
70
0
0
VERTEX
8
Layer 1
10
141.255939
20
-27.986233
70
0
0
VERTEX
8
Layer 1
10
142.239987
20
-26.914294
70
0
0
VERTEX
8
Layer 1
10
143.083438
20
-25.736920
70
0
0
VERTEX
8
Layer 1
10
143.786319
20
-24.454164
70
0
0
VERTEX
8
Layer 1
10
146.808764
20
-26.281689
70
0
0
VERTEX
8
Layer 1
10
146.035546
20
-28.091573
70
0
0
VERTEX
8
Layer 1
10
144.981239
20
-29.866449
70
0
0
VERTEX
8
Layer 1
10
143.645809
20
-31.553429
70
0
0
VERTEX
8
Layer 1
10
142.029084
20
-33.099762
70
0
0
VERTEX
8
Layer 1
10
140.113698
20
-34.382475
70
0
0
VERTEX
8
Layer 1
10
137.882009
20
-35.419312
70
0
0
VERTEX
8
Layer 1
10
135.334018
20
-36.051917
70
0
0
VERTEX
8
Layer 1
10
132.469725
20
-36.262785
70
0
0
VERTEX
8
Layer 1
10
132.469725
20
-36.262785
70
0
0
SEQEND
8
Layer 1
0
POLYLINE
8
Layer 1
62
7
70
1
10
0.000000
20
0.000000
66
1
0
VERTEX
8
Layer 1
10
152.320442
20
-31.623684
70
0
0
VERTEX
8
Layer 1
10
157.100122
20
-31.623684
70
0
0
VERTEX
8
Layer 1
10
157.100122
20
-4.491972
70
0
0
VERTEX
8
Layer 1
10
152.320442
20
-3.578210
70
0
0
VERTEX
8
Layer 1
10
152.320442
20
-0.485476
70
0
0
VERTEX
8
Layer 1
10
164.761667
20
1.974653
70
0
0
VERTEX
8
Layer 1
10
164.761667
20
-4.562262
70
0
0
VERTEX
8
Layer 1
10
165.113114
20
-4.562262
70
0
0
VERTEX
8
Layer 1
10
166.308034
20
-2.172422
70
0
0
VERTEX
8
Layer 1
10
167.151473
20
-1.047860
70
0
0
VERTEX
8
Layer 1
10
168.135559
20
-0.063740
70
0
0
VERTEX
8
Layer 1
10
169.330547
20
0.762229
70
0
0
VERTEX
8
Layer 1
10
170.665977
20
1.412338
70
0
0
VERTEX
8
Layer 1
10
172.229951
20
1.834040
70
0
0
VERTEX
8
Layer 1
10
173.969580
20
1.974653
70
0
0
VERTEX
8
Layer 1
10
175.502806
20
1.873599
70
0
0
VERTEX
8
Layer 1
10
176.869052
20
1.570455
70
0
0
VERTEX
8
Layer 1
10
178.068344
20
1.065245
70
0
0
VERTEX
8
Layer 1
10
179.100706
20
0.357997
70
0
0
VERTEX
8
Layer 1
10
179.961790
20
-0.538142
70
0
0
VERTEX
8
Layer 1
10
180.576818
20
-1.610038
70
0
0
VERTEX
8
Layer 1
10
180.945816
20
-2.857692
70
0
0
VERTEX
8
Layer 1
10
181.068810
20
-4.281104
70
0
0
VERTEX
8
Layer 1
10
180.989734
20
-5.414572
70
0
0
VERTEX
8
Layer 1
10
180.752507
20
-6.425000
70
0
0
VERTEX
8
Layer 1
10
180.357130
20
-7.312386
70
0
0
VERTEX
8
Layer 1
10
179.803600
20
-8.076732
70
0
0
VERTEX
8
Layer 1
10
179.149069
20
-8.661052
70
0
0
VERTEX
8
Layer 1
10
178.380274
20
-9.078391
70
0
0
VERTEX
8
Layer 1
10
177.497242
20
-9.328775
70
0
0
VERTEX
8
Layer 1
10
176.499998
20
-9.412231
70
0
0
VERTEX
8
Layer 1
10
175.467584
20
-9.341955
70
0
0
VERTEX
8
Layer 1
10
174.549433
20
-9.131108
70
0
0
VERTEX
8
Layer 1
10
173.745519
20
-8.779665
70
0
0
VERTEX
8
Layer 1
10
173.055817
20
-8.287601
70
0
0
VERTEX
8
Layer 1
10
172.533078
20
-7.655047
70
0
0
VERTEX
8
Layer 1
10
172.159662
20
-6.952170
70
0
0
VERTEX
8
Layer 1
10
171.935593
20
-6.178970
70
0
0
VERTEX
8
Layer 1
10
171.860897
20
-5.335445
70
0
0
VERTEX
8
Layer 1
10
171.983870
20
-4.245960
70
0
0
VERTEX
8
Layer 1
10
172.352923
20
-3.367342
70
0
0
VERTEX
8
Layer 1
10
172.897666
20
-2.699558
70
0
0
VERTEX
8
Layer 1
10
173.547843
20
-2.383290
70
0
0
VERTEX
8
Layer 1
10
173.547843
20
-2.172422
70
0
0
VERTEX
8
Layer 1
10
173.055817
20
-2.102133
70
0
0
VERTEX
8
Layer 1
10
172.212344
20
-2.031843
70
0
0
VERTEX
8
Layer 1
10
170.876846
20
-2.207532
70
0
0
VERTEX
8
Layer 1
10
169.541347
20
-2.734737
70
0
0
VERTEX
8
Layer 1
10
168.328855
20
-3.543065
70
0
0
VERTEX
8
Layer 1
10
167.221796
20
-4.562262
70
0
0
VERTEX
8
Layer 1
10
166.325641
20
-5.704499
70
0
0
VERTEX
8
Layer 1
10
165.605140
20
-7.022391
70
0
0
VERTEX
8
Layer 1
10
165.130687
20
-8.357890
70
0
0
VERTEX
8
Layer 1
10
164.972535
20
-9.693389
70
0
0
VERTEX
8
Layer 1
10
164.972535
20
-31.623684
70
0
0
VERTEX
8
Layer 1
10
171.158003
20
-31.623684
70
0
0
VERTEX
8
Layer 1
10
171.158003
20
-35.419312
70
0
0
VERTEX
8
Layer 1
10
152.320442
20
-35.419312
70
0
0
VERTEX
8
Layer 1
10
152.320442
20
-31.623684
70
0
0
VERTEX
8
Layer 1
10
152.320442
20
-31.623684
70
0
0
SEQEND
8
Layer 1
0
POLYLINE
8
Layer 1
62
7
70
1
10
0.000000
20
0.000000
66
1
0
VERTEX
8
Layer 1
10
196.995401
20
-35.981627
70
0
0
VERTEX
8
Layer 1
10
195.141505
20
-35.876193
70
0
0
VERTEX
8
Layer 1
10
193.586331
20
-35.559891
70
0
0
VERTEX
8
Layer 1
10
192.329903
20
-35.032720
70
0
0
VERTEX
8
Layer 1
10
191.372249
20
-34.294681
70
0
0
VERTEX
8
Layer 1
10
190.665000
20
-33.328215
70
0
0
VERTEX
8
Layer 1
10
190.159791
20
-32.115744
70
0
0
VERTEX
8
Layer 1
10
189.856646
20
-30.657243
70
0
0
VERTEX
8
Layer 1
10
189.755592
20
-28.952686
70
0
0
VERTEX
8
Layer 1
10
189.755592
20
-2.945606
70
0
0
VERTEX
8
Layer 1
10
184.975912
20
-2.945606
70
0
0
VERTEX
8
Layer 1
10
184.975912
20
1.131180
70
0
0
VERTEX
8
Layer 1
10
186.170832
20
1.131180
70
0
0
VERTEX
8
Layer 1
10
188.367445
20
1.359586
70
0
0
VERTEX
8
Layer 1
10
189.162577
20
1.645133
70
0
0
VERTEX
8
Layer 1
10
189.755592
20
2.044942
70
0
0
VERTEX
8
Layer 1
10
190.651748
20
3.169573
70
0
0
VERTEX
8
Layer 1
10
191.372249
20
4.715940
70
0
0
VERTEX
8
Layer 1
10
193.551220
20
10.901408
70
0
0
VERTEX
8
Layer 1
10
197.628006
20
10.901408
70
0
0
VERTEX
8
Layer 1
10
197.628006
20
1.131180
70
0
0
VERTEX
8
Layer 1
10
206.414182
20
1.131180
70
0
0
VERTEX
8
Layer 1
10
206.414182
20
-2.945606
70
0
0
VERTEX
8
Layer 1
10
197.628006
20
-2.945606
70
0
0
VERTEX
8
Layer 1
10
197.628006
20
-31.412816
70
0
0
VERTEX
8
Layer 1
10
206.414182
20
-31.412816
70
0
0
VERTEX
8
Layer 1
10
206.414182
20
-34.505550
70
0
0
VERTEX
8
Layer 1
10
204.850243
20
-35.032686
70
0
0
VERTEX
8
Layer 1
10
202.548264
20
-35.489601
70
0
0
VERTEX
8
Layer 1
10
199.859660
20
-35.858655
70
0
0
VERTEX
8
Layer 1
10
196.995401
20
-35.981627
70
0
0
VERTEX
8
Layer 1
10
196.995401
20
-35.981627
70
0
0
SEQEND
8
Layer 1
0
POLYLINE
8
Layer 1
62
7
70
1
10
0.000000
20
0.000000
66
1
0
VERTEX
8
Layer 1
10
221.900915
20
-36.262785
70
0
0
VERTEX
8
Layer 1
10
219.326579
20
-36.095835
70
0
0
VERTEX
8
Layer 1
10
217.086125
20
-35.595001
70
0
0
VERTEX
8
Layer 1
10
215.179529
20
-34.760310
70
0
0
VERTEX
8
Layer 1
10
213.606765
20
-33.591787
70
0
0
VERTEX
8
Layer 1
10
212.407452
20
-32.098150
70
0
0
VERTEX
8
Layer 1
10
211.550800
20
-30.358509
70
0
0
VERTEX
8
Layer 1
10
211.036809
20
-28.372837
70
0
0
VERTEX
8
Layer 1
10
210.865478
20
-26.141110
70
0
0
VERTEX
8
Layer 1
10
211.102705
20
-23.632618
70
0
0
VERTEX
8
Layer 1
10
211.814385
20
-21.449258
70
0
0
VERTEX
8
Layer 1
10
213.000519
20
-19.591003
70
0
0
VERTEX
8
Layer 1
10
214.661106
20
-18.057828
70
0
0
VERTEX
8
Layer 1
10
216.857663
20
-16.858515
70
0
0
VERTEX
8
Layer 1
10
219.651689
20
-16.001863
70
0
0
VERTEX
8
Layer 1
10
223.043157
20
-15.487872
70
0
0
VERTEX
8
Layer 1
10
227.032042
20
-15.316541
70
0
0
VERTEX
8
Layer 1
10
232.092880
20
-15.316541
70
0
0
VERTEX
8
Layer 1
10
232.092880
20
-10.536862
70
0
0
VERTEX
8
Layer 1
10
231.974266
20
-8.520383
70
0
0
VERTEX
8
Layer 1
10
231.618426
20
-6.758737
70
0
0
VERTEX
8
Layer 1
10
231.025359
20
-5.251925
70
0
0
VERTEX
8
Layer 1
10
230.195066
20
-3.999947
70
0
0
VERTEX
8
Layer 1
10
229.109986
20
-3.015934
70
0
0
VERTEX
8
Layer 1
10
227.752543
20
-2.313035
70
0
0
VERTEX
8
Layer 1
10
226.122712
20
-1.891277
70
0
0
VERTEX
8
Layer 1
10
224.220466
20
-1.750686
70
0
0
VERTEX
8
Layer 1
10
221.198021
20
-1.996733
70
0
0
VERTEX
8
Layer 1
10
220.003127
20
-2.304253
70
0
0
VERTEX
8
Layer 1
10
219.019050
20
-2.734737
70
0
0
VERTEX
8
Layer 1
10
219.019050
20
-3.015895
70
0
0
VERTEX
8
Layer 1
10
219.757054
20
-3.507852
70
0
0
VERTEX
8
Layer 1
10
220.424838
20
-4.281104
70
0
0
VERTEX
8
Layer 1
10
220.952043
20
-5.300266
70
0
0
VERTEX
8
Layer 1
10
221.127732
20
-6.670944
70
0
0
VERTEX
8
Layer 1
10
221.053037
20
-7.606723
70
0
0
VERTEX
8
Layer 1
10
220.828968
20
-8.445820
70
0
0
VERTEX
8
Layer 1
10
220.455551
20
-9.188235
70
0
0
VERTEX
8
Layer 1
10
219.932812
20
-9.833967
70
0
0
VERTEX
8
Layer 1
10
219.304575
20
-10.356706
70
0
0
VERTEX
8
Layer 1
10
218.544596
20
-10.730123
70
0
0
VERTEX
8
Layer 1
10
217.652825
20
-10.954192
70
0
0
VERTEX
8
Layer 1
10
216.629210
20
-11.028887
70
0
0
VERTEX
8
Layer 1
10
215.750631
20
-10.954192
70
0
0
VERTEX
8
Layer 1
10
214.942298
20
-10.730123
70
0
0
VERTEX
8
Layer 1
10
214.204238
20
-10.356706
70
0
0
VERTEX
8
Layer 1
10
213.536476
20
-9.833967
70
0
0
VERTEX
8
Layer 1
10
213.013737
20
-9.148646
70
0
0
VERTEX
8
Layer 1
10
212.640320
20
-8.357890
70
0
0
VERTEX
8
Layer 1
10
212.416251
20
-7.461700
70
0
0
VERTEX
8
Layer 1
10
212.341556
20
-6.460076
70
0
0
VERTEX
8
Layer 1
10
212.569962
20
-4.878599
70
0
0
VERTEX
8
Layer 1
10
213.255318
20
-3.367342
70
0
0
VERTEX
8
Layer 1
10
214.450238
20
-1.908768
70
0
0
VERTEX
8
Layer 1
10
216.066895
20
-0.626055
70
0
0
VERTEX
8
Layer 1
10
218.087646
20
0.445790
70
0
0
VERTEX
8
Layer 1
10
220.495127
20
1.271759
70
0
0
VERTEX
8
Layer 1
10
223.359352
20
1.798964
70
0
0
VERTEX
8
Layer 1
10
226.610306
20
1.974653
70
0
0
VERTEX
8
Layer 1
10
229.711864
20
1.781344
70
0
0
VERTEX
8
Layer 1
10
232.409216
20
1.201435
70
0
0
VERTEX
8
Layer 1
10
234.702387
20
0.234952
70
0
0
VERTEX
8
Layer 1
10
236.591402
20
-1.118081
70
0
0
VERTEX
8
Layer 1
10
238.067479
20
-2.818154
70
0
0
VERTEX
8
Layer 1
10
239.121820
20
-4.825779
70
0
0
VERTEX
8
Layer 1
10
239.754425
20
-7.140953
70
0
0
VERTEX
8
Layer 1
10
239.965293
20
-9.763678
70
0
0
VERTEX
8
Layer 1
10
239.965293
20
-31.693973
70
0
0
VERTEX
8
Layer 1
10
244.744973
20
-31.693973
70
0
0
VERTEX
8
Layer 1
10
244.744973
20
-34.856997
70
0
0
VERTEX
8
Layer 1
10
243.620411
20
-35.384133
70
0
0
VERTEX
8
Layer 1
10
242.214554
20
-35.841048
70
0
0
VERTEX
8
Layer 1
10
240.615470
20
-36.157351
70
0
0
VERTEX
8
Layer 1
10
238.910952
20
-36.262785
70
0
0
VERTEX
8
Layer 1
10
237.399704
20
-36.161731
70
0
0
VERTEX
8
Layer 1
10
236.099376
20
-35.858586
70
0
0
VERTEX
8
Layer 1
10
235.009916
20
-35.353377
70
0
0
VERTEX
8
Layer 1
10
234.131272
20
-34.646129
70
0
0
VERTEX
8
Layer 1
10
233.485488
20
-33.745558
70
0
0
VERTEX
8
Layer 1
10
233.024214
20
-32.730776
70
0
0
VERTEX
8
Layer 1
10
232.747450
20
-31.601757
70
0
0
VERTEX
8
Layer 1
10
232.655195
20
-30.358475
70
0
0
VERTEX
8
Layer 1
10
232.655195
20
-30.007028
70
0
0
VERTEX
8
Layer 1
10
232.303748
20
-30.007028
70
0
0
VERTEX
8
Layer 1
10
231.038538
20
-32.326578
70
0
0
VERTEX
8
Layer 1
10
230.142383
20
-33.345740
70
0
0
VERTEX
8
Layer 1
10
229.000146
20
-34.294681
70
0
0
VERTEX
8
Layer 1
10
227.664715
20
-35.103010
70
0
0
VERTEX
8
Layer 1
10
226.047990
20
-35.700470
70
0
0
VERTEX
8
Layer 1
10
224.132604
20
-36.122172
70
0
0
VERTEX
8
Layer 1
10
221.900915
20
-36.262785
70
0
0
VERTEX
8
Layer 1
10
221.900915
20
-36.262785
70
0
0
SEQEND
8
Layer 1
0
POLYLINE
8
Layer 1
62
7
70
1
10
0.000000
20
0.000000
66
1
0
VERTEX
8
Layer 1
10
224.993649
20
-31.342526
70
0
0
VERTEX
8
Layer 1
10
226.469675
20
-31.250271
70
0
0
VERTEX
8
Layer 1
10
227.805157
20
-30.973507
70
0
0
VERTEX
8
Layer 1
10
229.000094
20
-30.512233
70
0
0
VERTEX
8
Layer 1
10
230.054487
20
-29.866449
70
0
0
VERTEX
8
Layer 1
10
230.946245
20
-29.009797
70
0
0
VERTEX
8
Layer 1
10
231.583247
20
-27.915918
70
0
0
VERTEX
8
Layer 1
10
231.965467
20
-26.584812
70
0
0
VERTEX
8
Layer 1
10
232.092880
20
-25.016480
70
0
0
VERTEX
8
Layer 1
10
232.092880
20
-18.760722
70
0
0
VERTEX
8
Layer 1
10
227.875515
20
-18.760722
70
0
0
VERTEX
8
Layer 1
10
225.569195
20
-18.861776
70
0
0
VERTEX
8
Layer 1
10
223.640647
20
-19.164921
70
0
0
VERTEX
8
Layer 1
10
222.089870
20
-19.670130
70
0
0
VERTEX
8
Layer 1
10
220.916864
20
-20.377379
70
0
0
VERTEX
8
Layer 1
10
220.055780
20
-21.273517
70
0
0
VERTEX
8
Layer 1
10
219.440752
20
-22.345413
70
0
0
VERTEX
8
Layer 1
10
219.071754
20
-23.593068
70
0
0
VERTEX
8
Layer 1
10
218.948760
20
-25.016480
70
0
0
VERTEX
8
Layer 1
10
218.948760
20
-26.351978
70
0
0
VERTEX
8
Layer 1
10
219.049814
20
-27.538112
70
0
0
VERTEX
8
Layer 1
10
219.352959
20
-28.566095
70
0
0
VERTEX
8
Layer 1
10
219.858168
20
-29.435926
70
0
0
VERTEX
8
Layer 1
10
220.565417
20
-30.147606
70
0
0
VERTEX
8
Layer 1
10
221.448376
20
-30.670345
70
0
0
VERTEX
8
Layer 1
10
222.480734
20
-31.043762
70
0
0
VERTEX
8
Layer 1
10
223.662492
20
-31.267831
70
0
0
VERTEX
8
Layer 1
10
224.993649
20
-31.342526
70
0
0
VERTEX
8
Layer 1
10
224.993649
20
-31.342526
70
0
0
SEQEND
8
Layer 1
0
POLYLINE
8
Layer 1
62
7
70
1
10
0.000000
20
0.000000
66
1
0
VERTEX
8
Layer 1
10
254.637109
20
18.000638
70
0
0
VERTEX
8
Layer 1
10
256.042897
20
18.000638
70
0
0
VERTEX
8
Layer 1
10
256.042897
20
-45.119250
70
0
0
VERTEX
8
Layer 1
10
254.637109
20
-45.119250
70
0
0
VERTEX
8
Layer 1
10
254.637109
20
18.000638
70
0
0
VERTEX
8
Layer 1
10
254.637109
20
18.000638
70
0
0
SEQEND
8
Layer 1
 0 
ENDSEC
 0 
EOF